# xmcd
#
# Track frame offsets: 
#        150
#        94508
#        164721
#        212868
#
# Disc length: 4220 seconds
#
# Revision: 0
# Processed by: cddbd v1.5.2PL0 Copyright (c) Steve Scherf et al.
# Submitted via: ExactAudioCopy v1.0b1
#
DISCID=32107a04
DTITLE=Karajan - Bruckner Symphony No.4
DYEAR=2011
DGENRE=Classical
TTITLE0=Bewegt, Nicht Zu Schnell
TTITLE1=Andante Quasi Allegretto
TTITLE2=Scherzo (Bewegt) and Trio (Nicht Zu Schnell)
TTITLE3=Finale (Bewegt, Doch Nicht Zu Schnell) 
EXTD=
EXTT0=
EXTT1=
EXTT2=
EXTT3=
PLAYORDER=
